<?xml version="1.0" encoding="UTF-8"?>
<svg version="1.1" xmlns="http://www.w3.org/2000/svg" width="1632" height="1082">
<path d="M0 0 C1.0484068 -0.00570851 1.0484068 -0.00570851 2.11799353 -0.01153234 C4.45966019 -0.02183739 6.80108395 -0.01794399 9.14276695 -0.01409245 C10.83881312 -0.01854545 12.53485722 -0.0238597 14.23089826 -0.02996117 C18.89163924 -0.04414429 23.55231354 -0.0458044 28.21307302 -0.04536426 C33.23984294 -0.0470122 38.26658538 -0.06007835 43.29334068 -0.07155704 C54.28517571 -0.09440848 65.27699143 -0.10232789 76.26884699 -0.10738349 C83.13318895 -0.1106405 89.9975253 -0.11716302 96.86186409 -0.12438488 C115.87000981 -0.1439514 134.87815032 -0.16035517 153.88630676 -0.16326141 C155.10273313 -0.16344898 156.31915949 -0.16363655 157.57244726 -0.16382981 C160.03841106 -0.16419606 162.50437486 -0.16455975 164.97033866 -0.16492092 C166.19443573 -0.16510373 167.41853281 -0.16528654 168.67972374 -0.16547489 C170.51811257 -0.16574572 170.51811257 -0.16574572 172.39364056 -0.16602201 C192.2503703 -0.16956326 212.10699156 -0.19658241 231.96368368 -0.23397278 C252.35388115 -0.27206024 272.7440248 -0.29141893 293.13425863 -0.29172093 C304.58115557 -0.29230541 316.02792313 -0.30079192 327.47478676 -0.32971859 C337.2225401 -0.35423833 346.97011687 -0.36151132 356.71789272 -0.34647106 C361.68955445 -0.33930454 366.66086756 -0.34014871 371.63249016 -0.36288166 C376.18882724 -0.38351569 380.74454866 -0.38083005 385.3008794 -0.36000682 C386.94424514 -0.35652037 388.58765571 -0.36138597 390.23096271 -0.37571125 C402.33963605 -0.47441637 412.36440858 1.07841065 421.86087608 9.26006222 C431.84832101 21.70984955 432.01102863 34.02073175 431.99458885 49.25769711 C431.99645834 50.898433 431.9987596 52.53916846 432.00145417 54.17990321 C432.00756142 58.67842314 432.00743985 63.17692445 432.0062598 67.67544758 C432.00605552 72.53105303 432.01157711 77.38665254 432.01631737 82.24225521 C432.02461843 91.7512576 432.02737196 101.26025378 432.02792975 110.76925949 C432.02840513 118.49923894 432.03046103 126.22921634 432.03363037 133.95919514 C432.04243522 155.880545 432.04704998 177.80188996 432.0462999 199.7232416 C432.04623996 201.49535819 432.04623996 201.49535819 432.04617882 203.30327511 C432.04613794 204.48613036 432.04609706 205.66898561 432.04605494 206.88768496 C432.04564845 226.05947105 432.05521922 245.23123751 432.06931718 264.40301792 C432.08368243 284.09379178 432.0905873 303.78455606 432.08972341 323.4753353 C432.08939151 334.52809077 432.09213572 345.58082565 432.10290146 356.63357639 C432.11200837 366.04346992 432.1141801 375.45333352 432.10739204 384.86322955 C432.1041279 389.66252534 432.10406637 394.46176372 432.11274529 399.26105404 C432.12061574 403.65856722 432.11917325 408.05597751 432.11046115 412.45348819 C432.10892738 414.04024497 432.11073767 415.62700944 432.11632123 417.21375713 C432.16296507 431.4150938 431.7703743 445.27278321 421.48587608 456.13506222 C411.15274106 465.62012136 399.77946133 465.55454575 386.4768734 465.52075863 C384.79417561 465.52378089 383.1114792 465.52767074 381.4287852 465.5323512 C376.81430028 465.5426303 372.19989307 465.54044959 367.58540177 465.5361706 C362.6050643 465.53370323 357.62474553 465.54271768 352.6444149 465.55020809 C342.89109692 465.56295674 333.13780647 465.56474858 323.38448156 465.56240783 C315.45664612 465.56062472 307.52881902 465.56237416 299.60098457 465.56663227 C297.90842022 465.56752505 297.90842022 465.56752505 296.18166264 465.56843587 C293.88935622 465.56964763 291.59704981 465.57086176 289.30474339 465.57207825 C267.80797106 465.5829544 246.31121441 465.58079092 224.81444119 465.5746934 C205.15051218 465.56952403 185.48663272 465.5807801 165.82271351 465.59979162 C145.62908566 465.61916553 125.43548126 465.62742682 105.24184406 465.62366837 C93.90574315 465.62175567 82.56968441 465.62425065 71.23359108 465.63838291 C61.58320814 465.65029196 51.93289333 465.65170691 42.28250946 465.63959274 C37.35977298 465.63370078 32.43716112 465.63261347 27.51443291 465.64459515 C23.00528514 465.65544256 18.49636623 465.65236412 13.98722921 465.63833346 C12.35876833 465.6356834 10.73028959 465.63806277 9.10184623 465.64606933 C-4.64684488 465.70895855 -14.69477244 464.41120705 -24.82662392 454.63115597 C-32.16056667 446.72883265 -34.25969982 437.84293014 -34.27055168 427.26149464 C-34.27260432 426.57775213 -34.27465695 425.89400963 -34.27677178 425.18954766 C-34.28242384 422.8996289 -34.28098676 420.60977064 -34.27956581 418.31984615 C-34.28215048 416.66092489 -34.28516392 415.00200424 -34.28856921 413.34308445 C-34.29663056 408.78497054 -34.2984283 404.22687239 -34.29916668 399.66875219 C-34.30101874 394.7524225 -34.30856686 389.83610094 -34.3153019 384.91977596 C-34.32887964 374.16966949 -34.33490908 363.41956676 -34.33931255 352.66945314 C-34.34207594 345.95587205 -34.34631348 339.24229239 -34.35081673 332.52871227 C-34.36300871 313.9374739 -34.37330814 295.34623668 -34.37669182 276.75499439 C-34.37691138 275.56527653 -34.37713095 274.37555866 -34.37735717 273.14978874 C-34.37768459 271.36096385 -34.37768459 271.36096385 -34.37801862 269.53600109 C-34.37846208 267.11947719 -34.37890865 264.7029533 -34.37935829 262.28642941 C-34.37957972 261.08775239 -34.37980115 259.88907537 -34.38002929 258.6540748 C-34.38397679 239.23386696 -34.40142969 219.81369664 -34.42471781 200.39350329 C-34.44843931 180.45079506 -34.46089404 160.50810565 -34.46205974 140.56538308 C-34.46297605 129.37003067 -34.46871745 118.17472716 -34.48687935 106.97938824 C-34.50229109 97.44576541 -34.50739444 87.91220661 -34.49914125 78.3785737 C-34.49523856 73.51635734 -34.49614578 68.65426988 -34.51019859 63.79206944 C-34.52296017 59.33578731 -34.52172021 54.87973062 -34.50960788 50.4234487 C-34.50765479 48.81642436 -34.51071128 47.20938392 -34.51945224 45.60238217 C-34.57713552 34.27492153 -34.57398189 22.49731 -27.13912392 13.26006222 C-26.60287392 12.43506222 -26.06662392 11.61006222 -25.51412392 10.76006222 C-18.69433949 3.58134177 -9.79035133 0.01536901 0 0 Z M152.86087608 67.26006222 C153.34329721 74.25516862 154.98817704 80.44529177 157.11868858 87.12334347 C157.84179178 90.17940593 158.07853816 91.43702477 156.86087608 94.26006222 C155.07179835 97.08645538 152.94259178 99.64431969 150.86087608 102.26006222 C150.24792686 103.11277706 150.24792686 103.11277706 149.62259483 103.98271847 C139.02566313 117.86043398 121.38479266 124.83836019 104.67337608 127.38506222 C100.31469609 127.64871468 98.07382792 127.30194759 94.73587608 124.44756222 C93.41486321 123.07946922 92.12602394 121.67997573 90.86087608 120.26006222 C89.09971053 118.43816682 87.3285669 116.6258724 85.54837608 114.82256222 C84.72724327 113.95760128 83.90611046 113.09264034 83.06009483 112.20146847 C80.97495721 109.92916333 80.97495721 109.92916333 77.86087608 110.26006222 C77.53087608 111.25006222 77.20087608 112.24006222 76.86087608 113.26006222 C77.94459147 115.06360141 77.94459147 115.06360141 79.67337608 116.82256222 C80.3088839 117.53412472 80.94439171 118.24568722 81.59915733 118.97881222 C83.85821079 121.33883352 83.85821079 121.33883352 86.59134483 123.47881222 C93.56757696 129.38253475 93.56757696 129.38253475 94.41556358 134.81084347 C93.52722136 153.71708334 84.55950138 170.55302642 70.86087608 183.26006222 C61.68272312 191.35262719 61.68272312 191.35262719 56.47806358 191.08818722 C51.63009451 189.97828501 46.91721561 188.56075304 42.16556358 187.09990597 C39.21342005 186.34965672 36.880694 186.08343136 33.86087608 186.26006222 C33.86087608 187.58006222 33.86087608 188.90006222 33.86087608 190.26006222 C34.52619347 190.40403439 35.19151085 190.54800655 35.87698936 190.69634151 C56.04841989 195.28522781 56.04841989 195.28522781 59.65384483 200.37334347 C61.13395814 203.67220782 62.10900264 206.72894228 62.86087608 210.26006222 C63.29365035 211.53251263 63.73002402 212.80375862 64.17337608 214.07256222 C68.1060991 232.3060962 65.13946517 249.70288405 56.86087608 266.26006222 C54.65189171 266.99028683 54.65189171 266.99028683 51.76712608 267.66240597 C50.73716515 267.91312862 49.70720421 268.16385128 48.64603233 268.42217159 C46.45679837 268.93889328 44.26668863 269.45191852 42.07571983 269.96123409 C40.53077843 270.33925167 40.53077843 270.33925167 38.95462608 270.72490597 C37.5266671 271.05929684 37.5266671 271.05929684 36.06986046 271.40044308 C35.34089561 271.68411739 34.61193077 271.96779171 33.86087608 272.26006222 C33.53087608 273.25006222 33.20087608 274.24006222 32.86087608 275.26006222 C33.19087608 275.92006222 33.52087608 276.58006222 33.86087608 277.26006222 C39.75283354 276.69352785 45.22689383 275.4623199 50.93118858 273.88115597 C55.86377196 272.83544829 58.60414038 272.5075628 63.04446983 275.16631222 C64.14293403 276.01325657 65.22722993 276.87882205 66.29837608 277.76006222 C66.86822227 278.21639034 67.43806847 278.67271847 68.02518272 279.14287472 C81.49759978 290.15614785 90.55879888 305.92889693 92.86087608 323.26006222 C92.97584435 324.04187862 93.09081261 324.82369503 93.20926476 325.62920284 C93.52221003 329.50862479 93.57235529 332.19868089 91.35819054 335.50176144 C89.28340016 337.67723532 87.13263405 339.66646114 84.86087608 341.63506222 C83.3526269 342.98790059 81.8521942 344.34951967 80.36087608 345.72099972 C79.69056358 346.30671749 79.02025108 346.89243526 78.32962608 347.49590206 C76.43432365 349.38981787 76.43432365 349.38981787 76.86087608 353.26006222 C80.86792836 352.7601388 82.57676371 351.98439514 85.10306358 348.84599972 C94.5406888 337.83891306 94.5406888 337.83891306 100.64993858 336.31474972 C104.61984138 336.52369197 108.03419581 337.18541936 111.86087608 338.26006222 C112.506213 338.42747921 113.15154991 338.5948962 113.81644249 338.76738644 C125.77517977 341.92378178 135.12687453 347.21371073 144.04837608 355.72099972 C145.71866613 357.47581783 145.71866613 357.47581783 147.86087608 357.26006222 C148.12771202 357.84014034 148.39454796 358.42021847 148.66946983 359.01787472 C150.26170533 362.01440972 152.36310663 364.45835535 154.52103233 367.06474972 C157.05680862 371.21957851 157.03038523 374.4150719 156.08353233 379.13506222 C155.70871091 380.51335293 155.32172897 381.88838756 154.92337608 383.26006222 C153.57397 387.99857071 152.60458295 392.28952876 152.86087608 397.26006222 C154.18087608 396.93006222 155.50087608 396.60006222 156.86087608 396.26006222 C156.9797921 395.6250378 157.09870811 394.99001339 157.22122765 394.33574581 C160.78524218 376.34173872 160.78524218 376.34173872 165.54446983 371.56865597 C168.63473434 370.02955154 171.51228591 369.08141452 174.86087608 368.26006222 C176.07323936 367.77473019 176.07323936 367.77473019 177.31009483 367.27959347 C191.43300552 362.07162801 209.03241834 364.45805601 222.86087608 369.26006222 C223.89986046 369.45986691 224.93884483 369.65967159 226.00931358 369.86553097 C229.63951972 370.8241779 231.24295409 371.51432922 233.86087608 374.26006222 C236.92250992 381.23537485 238.41645082 388.81110206 239.86087608 396.26006222 C241.18087608 396.59006222 242.50087608 396.92006222 243.86087608 397.26006222 C244.87742126 394.1216109 244.82507341 392.272149 243.82962608 389.14287472 C243.59630577 388.37072628 243.36298546 387.59857784 243.12259483 386.80303097 C242.61702078 385.19815742 242.10922718 383.5939813 241.59915733 381.99053097 C240.2181122 377.40485071 239.31863098 373.96656882 240.86087608 369.26006222 C251.55138585 352.69931717 267.91984967 342.44957912 286.86087608 338.26006222 C287.83411827 337.91201534 288.80736046 337.56396847 289.81009483 337.20537472 C293.49135927 336.23107008 295.18779212 336.08798679 298.86087608 337.26006222 C303.00945991 340.5123293 306.57764392 344.31750494 310.07498741 348.24907589 C310.76745567 349.02613888 311.45992393 349.80320187 312.17337608 350.60381222 C312.7882589 351.32762081 313.40314171 352.05142941 314.03665733 352.79717159 C314.63864952 353.2799255 315.24064171 353.76267941 315.86087608 354.26006222 C318.06165733 354.09260941 318.06165733 354.09260941 319.86087608 353.26006222 C319.30600553 349.5876097 318.04452133 348.23546375 315.19290733 345.93193722 C303.72011099 336.09106361 303.72011099 336.09106361 302.22318077 331.158988 C301.86219463 326.2670436 303.24358699 321.82624777 304.86087608 317.26006222 C305.23470421 316.07928097 305.60853233 314.89849972 305.99368858 313.68193722 C311.19296736 298.87604401 319.696882 287.15041255 331.86087608 277.26006222 C332.87150108 276.41443722 333.88212608 275.56881222 334.92337608 274.69756222 C341.20305364 271.62452852 348.53450975 274.86588375 354.93118858 276.63896847 C357.98998066 277.28743239 360.74354911 277.36643984 363.86087608 277.26006222 C364.19087608 276.27006222 364.52087608 275.28006222 364.86087608 274.26006222 C360.86049197 272.5932355 357.27321467 271.33099773 352.97806358 270.59209347 C342.21394522 268.73698742 342.21394522 268.73698742 338.59915733 264.79131222 C336.95951956 261.65245905 335.85492888 258.65740733 334.86087608 255.26006222 C334.36394249 253.75379269 334.36394249 253.75379269 333.85696983 252.21709347 C329.06015064 235.24538789 331.2468449 216.56032434 339.12650108 200.86162472 C339.99981188 199.25071477 339.99981188 199.25071477 339.86087608 197.26006222 C341.00685265 196.99451534 342.15282921 196.72896847 343.33353233 196.45537472 C344.86350145 196.0986948 346.39344818 195.74191885 347.92337608 195.38506222 C348.67554405 195.21103878 349.42771202 195.03701534 350.20267296 194.85771847 C354.79830626 193.78341458 359.33385558 192.59472165 363.86087608 191.26006222 C363.53087608 189.61006222 363.20087608 187.96006222 362.86087608 186.26006222 C362.28120079 186.41152706 361.7015255 186.56299191 361.10428429 186.71904659 C358.46222778 187.40563799 355.81787072 188.08292518 353.17337608 188.76006222 C352.26136436 188.99853878 351.34935265 189.23701534 350.40970421 189.48271847 C349.08035851 189.82109737 349.08035851 189.82109737 347.72415733 190.16631222 C346.91245079 190.37578487 346.10074425 190.58525753 345.26444054 190.80107784 C341.61486831 191.49799971 338.89692456 191.87876254 335.64993858 189.93974972 C334.93579796 189.34420284 334.22165733 188.74865597 333.48587608 188.13506222 C332.70599327 187.48795284 331.92611046 186.84084347 331.12259483 186.17412472 C330.37622765 185.54248409 329.62986046 184.91084347 328.86087608 184.26006222 C328.2485714 183.79342159 327.63626671 183.32678097 327.00540733 182.84599972 C314.96753922 173.42505945 307.38686621 158.09313204 304.86087608 143.26006222 C304.61724327 142.24299191 304.37361046 141.22592159 304.12259483 140.17803097 C303.56885989 136.27299582 303.603882 134.03523446 304.86087608 130.26006222 C307.91767892 126.30655989 311.51579263 122.93886318 315.25662804 119.63994503 C316.34657066 118.67653194 316.34657066 118.67653194 317.45853233 117.69365597 C318.47185631 116.84372066 318.47185631 116.84372066 319.50565147 115.97661495 C319.9528756 115.41015255 320.40009972 114.84369015 320.86087608 114.26006222 C320.67027224 112.07340505 320.67027224 112.07340505 319.86087608 110.26006222 C316.18950643 110.81408983 314.85417419 112.06449619 312.56790733 114.92803097 C302.76878836 126.44415472 302.76878836 126.44415472 297.64554405 127.88164425 C292.48035031 128.1930497 287.73818966 126.8156828 282.86087608 125.26006222 C281.7432589 124.97131222 280.62564171 124.68256222 279.47415733 124.38506222 C263.31644452 119.75083985 249.66661782 108.41068441 240.86087608 94.26006222 C239.77134408 91.14255754 239.89675713 89.2441731 240.85696983 86.10771847 C241.08577843 85.33105831 241.31458702 84.55439816 241.55032921 83.75420284 C241.79718468 82.95176144 242.04404015 82.14932003 242.29837608 81.32256222 C244.50638519 74.43138609 244.50638519 74.43138609 244.86087608 67.26006222 C243.54087608 67.26006222 242.22087608 67.26006222 240.86087608 67.26006222 C240.7116671 67.9253796 240.56245811 68.59069698 240.40872765 69.2761755 C236.00876956 88.04954794 236.00876956 88.04954794 231.18118858 93.01787472 C228.07302533 94.59256751 225.25658266 95.49448473 221.86087608 96.26006222 C220.84896202 96.58232784 219.83704796 96.90459347 218.79446983 97.23662472 C204.79118296 101.26760842 190.52341838 99.94049731 176.74564171 95.78838253 C174.65024464 95.1670607 174.65024464 95.1670607 171.59525108 94.68974972 C168.18822839 93.80541323 166.48451513 92.59865668 163.86087608 90.26006222 C162.56766319 87.70928097 162.56766319 87.70928097 161.63821983 84.82256222 C161.13476036 83.27242428 161.13476036 83.27242428 160.62112999 81.69097042 C159.22491187 76.91282573 157.97811869 72.11077178 156.86087608 67.26006222 C155.54087608 67.26006222 154.22087608 67.26006222 152.86087608 67.26006222 Z " fill="#F6395A" transform="translate(612.139123916626,176.7399377822876)"/>
<path d="M0 0 C9.9 0 19.8 0 30 0 C38.30361167 19.03366795 46.60527334 38.06803132 54.85473633 57.12524414 C60.51941787 70.20883748 66.20749318 83.28224992 71.89550781 96.35571289 C76.43606022 106.79346784 80.96987815 117.23409946 85.49277496 127.67951775 C87.33444611 131.93234737 89.17717437 136.1847192 91.01959229 140.43722534 C92.04262076 142.7995312 93.06504775 145.16209765 94.08685303 147.52493286 C95.51605425 150.82976636 96.94728716 154.13371333 98.37890625 157.4375 C98.80302292 158.41980087 99.22713959 159.40210175 99.66410828 160.41416931 C101.6583502 165.01133855 103.69617304 169.5493091 106 174 C106.84621702 172.05370085 107.69243395 170.10740165 108.53865051 168.16110229 C109.30987909 166.3872776 110.08110922 164.61345357 110.8523407 162.83963013 C113.05792723 157.76680005 115.26348467 152.69395733 117.46899414 147.62109375 C122.08683036 136.99975117 126.70503639 126.37856973 131.32421875 115.7578125 C141.92493505 91.38447398 141.92493505 91.38447398 152.5 67 C154.334531 62.76529349 156.16947758 58.53076729 158.00476074 54.29638672 C158.72692728 52.63008022 159.44900185 50.96373386 160.17102051 49.29736328 C162.86405707 43.08230549 165.55907807 36.86811304 168.25610352 30.65478516 C169.16180931 28.56747818 170.06692919 26.47991686 170.97143555 24.39208984 C172.24241353 21.45862831 173.51550182 18.52609101 174.7890625 15.59375 C175.36009201 14.27389099 175.36009201 14.27389099 175.94265747 12.92736816 C176.30140961 12.10248901 176.66016174 11.27760986 177.02978516 10.42773438 C177.33921051 9.71435913 177.64863586 9.00098389 177.96743774 8.26599121 C179.23866269 5.47624703 180.62896496 2.74207009 182 0 C191.24 0 200.48 0 210 0 C210 69.3 210 138.6 210 210 C203.4 210 196.8 210 190 210 C189.67 150.27 189.34 90.54 189 29 C170.42089946 71.80662742 170.42089946 71.80662742 151.88720703 114.6328125 C149.93474021 119.15139673 147.98116852 123.6695028 146.02734375 128.1875 C145.69520874 128.95552444 145.36307373 129.72354889 145.02087402 130.5148468 C143.68298979 133.60849138 142.34506584 136.70211878 141.00714111 139.79574585 C137.59382653 147.68828545 134.18083085 155.58096197 130.76986694 163.47451782 C129.33691159 166.79054439 127.90369424 170.10645769 126.47045898 173.42236328 C125.79682656 174.98106369 125.12331803 176.53981766 124.44995117 178.09863281 C122.6091497 182.35996412 120.76598224 186.62025535 118.91912842 190.87896729 C118.28339987 192.34601042 117.64857065 193.81344348 117.01446533 195.28118896 C116.0444703 197.52569235 115.07140014 199.76883967 114.09765625 202.01171875 C113.65237831 203.0445977 113.65237831 203.0445977 113.19810486 204.0983429 C111.11401139 208.88598861 111.11401139 208.88598861 110 210 C106.99996555 210.14177857 104.00242765 210.04228771 101 210 C97.25588995 202.76528191 93.90846066 195.39200295 90.67077637 187.91848755 C89.46409953 185.13335692 88.25118382 182.35095439 87.03884888 179.56828308 C86.38414248 178.06533485 85.72974982 176.56224991 85.07565308 175.05903625 C81.52928065 166.91053349 77.9561547 158.77382538 74.38143921 150.63772583 C73.23944407 148.03847405 72.09781484 145.43906185 70.95629883 142.83959961 C69.40911838 139.31636168 67.86183416 135.79316937 66.31445312 132.27001953 C62.91477958 124.52923813 59.51640369 116.78788703 56.11795044 109.04656982 C54.25965878 104.81358302 52.40132212 100.58061597 50.54296875 96.34765625 C50.17396957 95.50714722 49.8049704 94.66663818 49.42478943 93.80065918 C47.06457362 88.42462448 44.70412751 83.04869095 42.34353638 77.67282104 C40.72270423 73.98161133 39.10194998 70.29036741 37.48120117 66.59912109 C36.71756796 64.86000906 35.95389769 63.12091331 35.19018555 61.38183594 C34.12278635 58.95121479 33.05552197 56.52053449 31.98828125 54.08984375 C31.6878743 53.40587021 31.38746735 52.72189667 31.07795715 52.01719666 C27.71102271 44.34811492 24.35711763 36.67341173 21 29 C20.67 88.73 20.34 148.46 20 210 C13.4 210 6.8 210 0 210 C0 140.7 0 71.4 0 0 Z " fill="#F63D5D" transform="translate(396,722)"/>
<path d="M0 0 C6.27 0 12.54 0 19 0 C19.33 35.64 19.66 71.28 20 108 C23.3 104.37 26.6 100.74 30 97 C40.7307882 88.82530967 55.48512435 83.37319183 69 83 C69.66386719 82.96132813 70.32773438 82.92265625 71.01171875 82.8828125 C89.76699626 82.25879218 108.27484875 87.60821338 122.25 100.3125 C136.22433996 113.50913371 145.52288985 130.69599441 146.203125 150.21484375 C146.5822888 173.02987836 141.21253858 191.28080313 125.3125 208.1875 C117.34099731 215.88961243 107.58585862 221.674427 97 225 C95.87464844 225.35578125 94.74929688 225.7115625 93.58984375 226.078125 C79.24260956 229.55492414 59.55438088 229.12484056 46 223 C44.89140625 222.50242187 43.7828125 222.00484375 42.640625 221.4921875 C33.53206253 216.97988121 26.10637765 211.14183686 20 203 C19.67 209.93 19.34 216.86 19 224 C12.73 224 6.46 224 0 224 C0 150.08 0 76.16 0 0 Z M32 117 C19.89560705 130.91593475 15.80402146 145.81353265 17 164 C18.99934237 177.94499301 26.05252574 189.57034576 36.9453125 198.3828125 C51.3156773 209.12705158 66.35188505 212.34235403 84 211 C98.59051945 208.36497327 109.95722739 200.32487274 118.8203125 188.58984375 C127.72547047 174.82936096 129.63688193 158.43519789 126.875 142.5625 C123.63627845 127.77833587 115.63809927 116.53840684 103.52734375 107.53515625 C80.24455914 93.39275385 51.04943 98.63498066 32 117 Z " fill="#F64060" transform="translate(1080,708)"/>
<path d="M0 0 C16.69394151 17.15130977 19.28125 36.22423271 19.28125 59.34375 C-18.66875 59.34375 -56.61875 59.34375 -95.71875 59.34375 C-92.72922816 75.28786647 -90.01418401 89.39092066 -76.71875 99.78125 C-62.89569344 109.12187851 -47.38336995 111.59523799 -31.02734375 108.6875 C-19.28273848 105.40862103 -9.85618386 99.31342142 -1.71875 90.34375 C-0.39875 89.02375 0.92125 87.70375 2.28125 86.34375 C6.24125 89.64375 10.20125 92.94375 14.28125 96.34375 C12.0425122 105.29870118 2.80923587 112.42160539 -4.71875 117.34375 C-17.36923596 124.79348062 -29.39638712 126.91341867 -43.96875 126.84375 C-44.65029144 126.84231995 -45.33183289 126.84088989 -46.0340271 126.8394165 C-66.28505495 126.73423488 -81.32444192 120.87964144 -95.71875 106.34375 C-109.31088196 91.83257709 -115.13976637 72.00379553 -114.71875 52.34375 C-113.76767647 33.2130653 -107.59335129 14.17961888 -93.16943359 0.91943359 C-82.46402816 -8.39943769 -71.72110458 -13.85966323 -57.71875 -16.65625 C-57.00589844 -16.800625 -56.29304687 -16.945 -55.55859375 -17.09375 C-35.26540167 -20.22179502 -14.84415948 -14.09255647 0 0 Z M-85.7109375 17.59375 C-91.18190867 25.0870646 -95.71875 33.93207037 -95.71875 43.34375 C-64.03875 43.34375 -32.35875 43.34375 0.28125 43.34375 C0.28125 31.74096108 -2.10152108 24.03591633 -9.71875 15.34375 C-10.19699219 14.74949219 -10.67523437 14.15523437 -11.16796875 13.54296875 C-18.72731405 4.95540016 -31.06515346 -0.13043039 -42.30078125 -0.90234375 C-59.68552937 -1.62749876 -74.2927994 4.17027582 -85.7109375 17.59375 Z " fill="#F63D5D" transform="translate(762.71875,808.65625)"/>
<path d="M0 0 C12.65667477 11.66883674 18.92246339 26.58224375 21.3125 43.3125 C21.3125 49.5825 21.3125 55.8525 21.3125 62.3125 C-16.6375 62.3125 -54.5875 62.3125 -93.6875 62.3125 C-89.65907306 80.44042125 -85.9511609 95.2890189 -69.9375 105.6875 C-56.28689248 113.0458673 -40.67434438 114.93377258 -25.6875 110.6875 C-13.94248969 106.43422435 -3.13080719 100.31981645 3.3125 89.3125 C8.42973176 92.51076985 12.83942892 96.27084187 17.3125 100.3125 C7.654953 115.76457519 -6.3120409 124.67432148 -23.96875 128.85229492 C-28.97858941 129.70031461 -34.04264353 129.57742265 -39.11303711 129.60766602 C-41.08796605 129.62468094 -43.06260538 129.66853082 -45.03710938 129.71289062 C-63.40880991 129.83260597 -78.99678582 123.65107132 -92.25 110.91796875 C-107.6234541 94.48512599 -112.27305687 73.90272997 -111.95703125 52 C-111.36380274 34.41939557 -104.14827299 17.36663762 -91.58984375 4.99609375 C-66.06039713 -18.60919538 -28.03534471 -21.79812353 0 0 Z M-81.10546875 17.734375 C-88.5675641 26.52648734 -91.43311971 35.04059854 -93.6875 46.3125 C-61.6775 46.3125 -29.6675 46.3125 3.3125 46.3125 C1.89102228 32.09772278 -1.36645288 22.6123277 -12.265625 13.05078125 C-33.56043967 -3.40706837 -62.22137784 -1.18022333 -81.10546875 17.734375 Z " fill="#F63D5D" transform="translate(1023.6875,805.6875)"/>
<path d="M0 0 C-0.66 5.94 -1.32 11.88 -2 18 C-4.7225 17.9175 -7.445 17.835 -10.25 17.75 C-21.77168319 17.6356357 -31.375132 19.99534723 -40 28 C-40.81404297 28.75216797 -40.81404297 28.75216797 -41.64453125 29.51953125 C-53.75134499 42.11674757 -53.30639499 60.53089199 -53.4140625 76.79296875 C-53.43280526 78.59329586 -53.4523809 80.39361448 -53.4727478 82.19392395 C-53.52374704 86.89717565 -53.56354365 91.60045574 -53.60089111 96.30383301 C-53.64113441 101.1173384 -53.69213329 105.93072903 -53.7421875 110.74414062 C-53.83856472 120.16268722 -53.92209393 129.58128249 -54 139 C-59.94 139 -65.88 139 -72 139 C-72.01030746 137.68186813 -72.02061493 136.36373627 -72.03123474 135.00566101 C-72.12984594 122.46116248 -72.23264578 109.916704 -72.33933926 97.37227154 C-72.39403588 90.92617398 -72.44735801 84.48007172 -72.49731445 78.03393555 C-72.54575954 71.7898272 -72.59810796 65.54576172 -72.65294075 59.30170631 C-72.6730086 56.94323638 -72.69177031 54.58475488 -72.70907402 52.22626305 C-72.833247 35.46821951 -73.30017147 18.74388756 -74 2 C-67.73 2 -61.46 2 -55 2 C-54.93941406 3.43214844 -54.87882813 4.86429688 -54.81640625 6.33984375 C-54.73201896 8.20574041 -54.64737007 10.07162524 -54.5625 11.9375 C-54.52318359 12.88302734 -54.48386719 13.82855469 -54.44335938 14.80273438 C-54.40146484 15.70185547 -54.35957031 16.60097656 -54.31640625 17.52734375 C-54.27974854 18.35999756 -54.24309082 19.19265137 -54.20532227 20.05053711 C-54.20632897 22.00338858 -54.20632897 22.00338858 -53 23 C-52.52691406 22.28714844 -52.05382812 21.57429687 -51.56640625 20.83984375 C-47.0662466 14.32206866 -42.65859845 9.31685335 -36 5 C-35.38769531 4.60167969 -34.77539062 4.20335937 -34.14453125 3.79296875 C-23.70237621 -2.15171227 -11.32350304 -3.23528658 0 0 Z " fill="#F63D5D" transform="translate(893,793)"/>
<path d="M0 0 C3.35210403 2.55399973 3.97405966 5.37079887 4.9375 9.29614258 C5.13018967 10.0172522 5.32287933 10.73836182 5.52140808 11.48132324 C6.1303346 13.77980208 6.7114113 16.08435536 7.29296875 18.38989258 C7.70206566 19.9411259 8.11285498 21.49191396 8.52539062 23.04223633 C11.48046875 34.291359 11.48046875 34.291359 11.48046875 37.88989258 C10.88621094 37.70813477 10.29195312 37.52637695 9.6796875 37.33911133 C5.06274417 35.93894967 0.43751752 34.57076987 -4.20703125 33.26489258 C-5.05652344 33.02512695 -5.90601563 32.78536133 -6.78125 32.53833008 C-21.20527972 29.122654 -36.42903177 30.18400592 -50.20703125 35.63989258 C-53.51953125 36.88989258 -53.51953125 36.88989258 -56.51953125 35.88989258 C-55.2830796 30.96698324 -54.00454717 26.05770727 -52.68652344 21.15600586 C-52.24456545 19.48879539 -51.81406321 17.81850275 -51.39550781 16.14526367 C-50.79000878 13.73331138 -50.14348975 11.33562763 -49.48828125 8.93676758 C-49.31083374 8.19183044 -49.13338623 7.44689331 -48.95056152 6.67938232 C-48.05122077 3.52352212 -47.38204939 1.51830579 -44.67489624 -0.45407104 C-30.06773183 -7.90889377 -14.60840664 -6.43647529 0 0 Z " fill="#F63D5D" transform="translate(833.51953125,506.110107421875)"/>
<path d="M0 0 C2.51141476 2.48903138 4.99163452 4.99102242 7.40234375 7.578125 C21.29731062 22.22243523 37.20971184 29.35051658 57 33 C54.62190203 38.69939365 49.77396374 42.78992845 45.5168457 47.12841797 C44.46642477 48.20693023 43.42592327 49.29519579 42.39575195 50.39306641 C33.91459038 59.42896891 33.91459038 59.42896891 29.45751953 60.75830078 C27.13938163 60.80447883 25.24302506 60.56571747 23 60 C21.4221875 59.67128906 21.4221875 59.67128906 19.8125 59.3359375 C13.13026227 57.05283961 7.61095962 54.28941623 2 50 C0.948125 49.21625 -0.10375 48.4325 -1.1875 47.625 C-7.9374572 41.32503995 -7.9374572 41.32503995 -10 37 C-9.93188477 34.84838867 -9.93188477 34.84838867 -9.37890625 32.54296875 C-9.17346191 31.66793701 -8.96801758 30.79290527 -8.75634766 29.89135742 C-8.50675293 28.93720947 -8.2571582 27.98306152 -8 27 C-7.73106934 25.97044189 -7.46213867 24.94088379 -7.18505859 23.88012695 C-6.29610737 20.57862648 -5.37246068 17.28874829 -4.4375 14 C-3.96280273 12.30423828 -3.96280273 12.30423828 -3.47851562 10.57421875 C-1.13827481 2.27654962 -1.13827481 2.27654962 0 0 Z " fill="#F63E5E" transform="translate(849,276)"/>
<path d="M0 0 C1.175625 0.4125 2.35125 0.825 3.5625 1.25 C5.37410484 1.83610745 7.18672756 2.41907223 9 3 C10.04414062 3.35964844 11.08828125 3.71929687 12.1640625 4.08984375 C28.33465911 9.12746864 45.05205946 8.51734307 61 3 C62.1240625 2.62617188 63.248125 2.25234375 64.40625 1.8671875 C65.2621875 1.58101563 66.118125 1.29484375 67 1 C66.32648736 8.29189688 64.56839981 15.18381037 62.6875 22.25 C62.39166016 23.42046875 62.09582031 24.5909375 61.79101562 25.796875 C61.34338867 27.48296875 61.34338867 27.48296875 60.88671875 29.203125 C60.62076904 30.22051758 60.35481934 31.23791016 60.08081055 32.28613281 C58.50681698 36.23836063 56.32419266 38.33367302 52.5546875 40.23046875 C38.81280149 45.13828518 26.48438077 44.68085348 12.92578125 39 C9.78597604 37.36959405 9.0597925 36.18216337 7.94677734 32.79125977 C7.56929448 31.42661393 7.19951263 30.0598231 6.8359375 28.69140625 C6.63900299 27.96888168 6.44206848 27.24635712 6.23916626 26.50193787 C5.82418961 24.97376186 5.41251934 23.44468474 5.00390625 21.91479492 C4.37783452 19.57310196 3.74057142 17.23467612 3.1015625 14.89648438 C2.69985342 13.41163873 2.29879009 11.92661821 1.8984375 10.44140625 C1.7078476 9.7413295 1.51725769 9.04125275 1.32089233 8.31996155 C0.55923551 5.4527437 0 2.98171671 0 0 Z " fill="#F63E5E" transform="translate(777,273)"/>
<path d="M0 0 C0.66 0.33 1.32 0.66 2 1 C2.5152224 3.25447026 2.93568622 5.53081167 3.3125 7.8125 C6.64644006 26.09364095 16.57576008 42.6200029 31.6875 53.625 C32.33074219 54.05039062 32.97398437 54.47578125 33.63671875 54.9140625 C34.08660156 55.27242188 34.53648437 55.63078125 35 56 C35 56.66 35 57.32 35 58 C30.41452354 59.31596841 25.82480348 60.61544505 21.23046875 61.90014648 C19.66963835 62.33904915 18.11003968 62.78235776 16.55175781 63.23022461 C14.30586592 63.87487876 12.05595595 64.50332425 9.8046875 65.12890625 C9.1138205 65.33093155 8.42295349 65.53295685 7.71115112 65.74110413 C3.45768583 66.90242297 0.26675051 67.15965492 -4 66 C-14.56553147 58.78451509 -22.08068103 47.42086268 -25 35 C-25.17724609 34.30148926 -25.35449219 33.60297852 -25.53710938 32.88330078 C-26.16464365 28.14981376 -25.54083023 25.72643129 -22.65234375 21.84667969 C-19.44670186 18.33648086 -15.98079531 15.10816826 -12.5 11.875 C-11.29330055 10.71851221 -10.08884657 9.55967662 -8.88671875 8.3984375 C-5.94974542 5.57114902 -2.98395816 2.77762063 0 0 Z " fill="#F63E5E" transform="translate(909,313)"/>
<path d="M0 0 C4.30572602 1.09993605 8.61070674 2.20273142 12.91503906 3.30810547 C14.37740577 3.6832287 15.8399683 4.05758944 17.30273438 4.43115234 C19.41328877 4.9702926 21.52310823 5.51223142 23.6328125 6.0546875 C24.90012207 6.37937012 26.16743164 6.70405273 27.47314453 7.03857422 C36.74819424 9.56696587 36.74819424 9.56696587 38.64453125 12.828125 C39.02996094 13.95734375 39.41539062 15.0865625 39.8125 16.25 C40.21082031 17.36890625 40.60914063 18.4878125 41.01953125 19.640625 C44.5935205 31.88616586 42.73492845 42.65127106 38.8125 54.625 C34.09767292 60.80304928 22.29099713 61.86169541 15.125 63.6875 C13.89007812 64.00783203 12.65515625 64.32816406 11.3828125 64.65820312 C2.27526986 67 2.27526986 67 0 67 C0.18175781 66.41734375 0.36351562 65.8346875 0.55078125 65.234375 C1.39037661 62.49600244 2.19927788 59.74999135 3 57 C3.27457031 56.07316406 3.54914062 55.14632812 3.83203125 54.19140625 C8.54534696 37.07951621 7.38153831 21.1570294 1.0234375 4.765625 C0 2 0 2 0 0 Z " fill="#F63E5D" transform="translate(676,375)"/>
<path d="M0 0 C7.04751295 7.03255008 11.68354738 14.76671701 14.77734375 24.2109375 C14.96683594 24.78070313 15.15632812 25.35046875 15.3515625 25.9375 C16.00522535 29.42769978 16.35793978 32.70596862 15.77734375 36.2109375 C14.0188486 38.69976774 12.5563902 40.42450301 10.37890625 42.4609375 C9.82874847 43.00451904 9.2785907 43.54810059 8.71176147 44.1081543 C7.55240236 45.24675888 6.38359447 46.37581352 5.20605469 47.49560547 C3.39720728 49.21582229 1.61687863 50.96183611 -0.16015625 52.71484375 C-1.29142996 53.8192867 -2.42419205 54.92220762 -3.55859375 56.0234375 C-4.09511566 56.54518555 -4.63163757 57.06693359 -5.18441772 57.60449219 C-8.98589081 61.2109375 -8.98589081 61.2109375 -11.22265625 61.2109375 C-11.36960937 60.30214844 -11.5165625 59.39335937 -11.66796875 58.45703125 C-15.24617513 38.40673686 -23.89649913 20.25096593 -40.89355469 8.00732422 C-42.32184489 7.05275725 -43.77043638 6.12868935 -45.22265625 5.2109375 C-42.50834602 2.49662727 -39.43843041 1.91439216 -35.8359375 0.90625 C-34.73308662 0.59661819 -34.73308662 0.59661819 -33.60795593 0.2807312 C-32.04975743 -0.15194414 -30.4903745 -0.58037299 -28.92993164 -1.00488281 C-26.55443098 -1.65875699 -24.19121438 -2.34846713 -21.82617188 -3.0390625 C-20.30921629 -3.45539995 -18.79165394 -3.86953414 -17.2734375 -4.28125 C-16.57213211 -4.49248505 -15.87082672 -4.70372009 -15.14826965 -4.9213562 C-8.38034277 -6.66962477 -5.18502835 -4.17353776 0 0 Z " fill="#F63E5D" transform="translate(722.22265625,442.7890625)"/>
<path d="M0 0 C-0.33773437 0.95519531 -0.67546875 1.91039062 -1.0234375 2.89453125 C-8.53383322 24.49147793 -8.63397177 43.44652631 0 65 C-8.17248215 63.57986376 -16.29706104 62.01262835 -24.375 60.125 C-25.52355469 59.90070313 -26.67210937 59.67640625 -27.85546875 59.4453125 C-36.00537547 57.47187758 -36.00537547 57.47187758 -38.86425781 53.24121094 C-44.72983048 39.52123702 -44.39570419 25.82403044 -39 12 C-38.77989258 11.32686768 -38.55978516 10.65373535 -38.33300781 9.96020508 C-36.31158031 6.98767002 -34.02770388 6.78911142 -30.6015625 5.89453125 C-29.97019379 5.72499435 -29.33882507 5.55545746 -28.68832397 5.38078308 C-26.67087546 4.84283314 -24.6484163 4.32749457 -22.625 3.8125 C-21.27044484 3.45524579 -19.91627228 3.0965376 -18.5625 2.73632812 C-15.04647152 1.8051045 -11.5250702 0.89647385 -8 0 C-6.87343994 -0.31384644 -6.87343994 -0.31384644 -5.72412109 -0.6340332 C-3.5617921 -1.09301524 -2.08119379 -0.66895515 0 0 Z " fill="#F63E5D" transform="translate(946,377)"/>
<path d="M0 0 C8.47161161 1.66349948 15.34150874 5.28691749 22.21435547 10.43481445 C23.26623047 11.19793945 24.31810547 11.96106445 25.40185547 12.74731445 C26.32998047 13.63418945 27.25810547 14.52106445 28.21435547 15.43481445 C28.7917749 15.95575684 29.36919434 16.47669922 29.96411133 17.01342773 C32.51758303 19.88567448 34.31383413 22.39783873 34.11886597 26.3901062 C33.17381263 32.072595 31.34973578 37.52561688 29.58935547 42.99731445 C29.07660748 44.68957718 28.56745419 46.38293351 28.06201172 48.07739258 C26.82068271 52.21034417 25.53119316 56.32532892 24.21435547 60.43481445 C21.66839664 57.93086814 19.27525594 55.51362683 17.08935547 52.68481445 C4.2236065 37.09361088 -14.30054307 29.82331076 -33.78564453 27.43481445 C-28.73935398 21.42379188 -23.46763012 15.66174988 -18.03564453 9.99731445 C-17.19259766 9.07499023 -16.34955078 8.15266602 -15.48095703 7.20239258 C-10.53127823 2.08999498 -7.31156622 -0.77555595 0 0 Z " fill="#F63D5D" transform="translate(748.78564453125,481.565185546875)"/>
<path d="M0 0 C4.7444651 1.05902002 9.43273413 2.29398059 14.125 3.5625 C15.36765625 3.89185547 16.6103125 4.22121094 17.890625 4.56054688 C20.92897365 5.36687786 23.96527466 6.18015787 27 7 C27 7.99 27 8.98 27 10 C25.07963644 11.70063544 23.15540007 13.25442354 21.125 14.8125 C5.07671487 27.83019826 -1.76748272 45.00943259 -5 65 C-10.71168095 62.62433023 -14.79208916 57.73344259 -19.12841797 53.46191406 C-20.207799 52.40560923 -21.29606547 51.35830685 -22.39306641 50.3203125 C-23.98531545 48.81362713 -25.54915042 47.28193315 -27.109375 45.7421875 C-28.04749023 44.8332373 -28.98560547 43.92428711 -29.95214844 42.98779297 C-32.73607305 38.92607749 -32.43533826 36.85311277 -32 32 C-29.51656643 19.07380539 -22.7105577 9.61284248 -13 1 C-8.55948277 -1.96034482 -5.11604783 -0.87758237 0 0 Z " fill="#F63D5D" transform="translate(916,439)"/>
<path d="M0 0 C6.00186429 5.0537676 11.80903393 10.28597418 17.5 15.6875 C18.43070313 16.52216797 19.36140625 17.35683594 20.3203125 18.21679688 C26.75284535 24.39791067 26.75284535 24.39791067 27.4440918 28.87866211 C26.38526081 43.14928356 18.3310168 54.68321545 8 64 C7.10849243 64.80836304 7.10849243 64.80836304 6.19897461 65.63305664 C3.38782935 67.38054219 2.29738867 67.11814026 -0.89453125 66.4140625 C-2.34786865 66.09937012 -2.34786865 66.09937012 -3.83056641 65.77832031 C-9.47359621 64.39255702 -15.08660204 62.92224413 -20.6875 61.375 C-21.87794922 61.05015625 -23.06839844 60.7253125 -24.29492188 60.390625 C-27.19777315 59.59787847 -30.09940035 58.80093812 -33 58 C-31.32605505 54.36135743 -29.63164897 52.74438857 -26.375 50.375 C-20.97653298 46.18398232 -16.97776871 41.52963364 -13 36 C-12.52820313 35.36578125 -12.05640625 34.7315625 -11.5703125 34.078125 C-4.70858306 24.10517662 -2.18863751 11.70832097 0 0 Z " fill="#F63D5C" transform="translate(711,313)"/>
<path d="M0 0 C2.64687178 2.64687178 3.21606527 5.54515139 4.19921875 9.0546875 C4.39852493 9.75264435 4.59783112 10.4506012 4.80317688 11.16970825 C5.22252109 12.64652156 5.63838359 14.12432729 6.05102539 15.60302734 C6.68404781 17.86267698 7.33447365 20.11681498 7.98632812 22.37109375 C8.39169553 23.80698988 8.79602691 25.24317897 9.19921875 26.6796875 C9.39496994 27.35272919 9.59072113 28.02577087 9.79240417 28.71920776 C10.72481173 32.11987372 11.39408688 34.67695408 10 38 C1.59231399 49.81950063 -9.52770372 57.0372392 -23.7109375 59.8359375 C-28.17174581 60.15565414 -30.36903622 59.5308706 -33.86254883 56.59155273 C-34.90436138 55.54911085 -35.93534182 54.49576568 -36.95703125 53.43359375 C-37.50485764 52.88010757 -38.05268402 52.3266214 -38.61711121 51.75636292 C-40.35854752 49.99259989 -42.08553359 48.21542213 -43.8125 46.4375 C-44.99321296 45.23671735 -46.17484384 44.03683652 -47.35742188 42.83789062 C-50.24902269 39.90227171 -53.12774531 36.95454518 -56 34 C-52.51265472 32.15522444 -49.39275413 31.40204834 -45.5 30.6875 C-26.34135916 26.69280414 -11.35688008 15.7754733 0 0 Z " fill="#F63D5D" transform="translate(771,276)"/>
<path d="M0 0 C4.74673659 -0.64753112 7.18604266 -0.0437428 11.08105469 2.85302734 C14.58970508 6.0598668 17.81806324 9.52601838 21.05102539 13.0065918 C22.20751318 14.21329125 23.36634877 15.41774523 24.52758789 16.61987305 C27.35487637 19.55684638 30.14840477 22.52263364 32.92602539 25.5065918 C32.59602539 26.1665918 32.26602539 26.8265918 31.92602539 27.5065918 C29.67155513 28.02181419 27.39521372 28.44227802 25.11352539 28.8190918 C6.30106116 32.266402 -9.02266838 42.34438766 -20.40991211 57.56518555 C-20.95905273 58.20584961 -21.50819336 58.84651367 -22.07397461 59.5065918 C-22.73397461 59.5065918 -23.39397461 59.5065918 -24.07397461 59.5065918 C-25.38822556 54.90233136 -26.6878065 50.29427225 -27.97412109 45.68212891 C-28.41349554 44.11460022 -28.85681785 42.54817243 -29.30419922 40.98291016 C-29.9475821 38.7292809 -30.5765369 36.47203879 -31.20288086 34.21362305 C-31.40490616 33.51759476 -31.60693146 32.82156647 -31.81507874 32.10444641 C-32.87334162 28.22799213 -33.33783745 25.36091284 -32.07397461 21.5065918 C-24.34207841 10.17084567 -13.09151436 3.19775071 0 0 Z " fill="#F63D5D" transform="translate(873.073974609375,481.493408203125)"/>
<path d="M0 0 C423.06 0 846.12 0 1282 0 C1282 0.33 1282 0.66 1282 1 C858.94 1 435.88 1 0 1 C0 0.67 0 0.34 0 0 Z " fill="#D2D2D2" transform="translate(8,18)"/>
<path d="M0 0 C1.29744141 -0.01160156 1.29744141 -0.01160156 2.62109375 -0.0234375 C10.41905794 1.03286044 10.41905794 1.03286044 13.5625 3.375 C15.53136873 6.98722811 16.42430986 10.76558275 17.375 14.75 C17.65996338 15.83023437 17.94492676 16.91046875 18.23852539 18.0234375 C19.04930515 21.1329449 19.81388367 24.25002278 20.5625 27.375 C20.85495605 28.56270996 20.85495605 28.56270996 21.15332031 29.77441406 C22.01915674 33.29570293 22.83400278 36.82270877 23.5625 40.375 C22.89863281 40.17003906 22.23476563 39.96507812 21.55078125 39.75390625 C20.66777344 39.48449219 19.78476562 39.21507812 18.875 38.9375 C18.00488281 38.67066406 17.13476562 38.40382813 16.23828125 38.12890625 C3.87989166 34.64690743 -9.28378681 35.57405744 -21.4375 39.375 C-20.08431953 31.27012911 -18.33800203 23.32166235 -16.25 15.375 C-15.98380859 14.25738281 -15.71761719 13.13976562 -15.44335938 11.98828125 C-13.36796007 4.18553285 -13.36796007 4.18553285 -10.8293457 1.97412109 C-7.39557351 0.39045581 -3.74553672 -0.0333926 0 0 Z " fill="#F63F5F" transform="translate(810.4375,462.625)"/>
<path d="M0 0 C1.27875 0.28875 2.5575 0.5775 3.875 0.875 C5.58323739 1.25043679 7.29157622 1.62541227 9 2 C9.83917969 2.19078125 10.67835938 2.3815625 11.54296875 2.578125 C23.45607821 5.1639162 33.30644086 2.98127869 45 0 C44.12569213 6.74328059 42.58089189 13.18824608 40.83618164 19.75341797 C40.4858692 21.08901476 40.14574988 22.42732505 39.81567383 23.76806641 C39.33420233 25.72111111 38.81790453 27.66546607 38.30078125 29.609375 C38.00341064 30.76405273 37.70604004 31.91873047 37.3996582 33.10839844 C35.58674241 36.85376293 33.84603849 37.59048911 30 39 C26.5625 39.3984375 26.5625 39.3984375 23 39.375 C21.824375 39.38273437 20.64875 39.39046875 19.4375 39.3984375 C15.48372995 38.94015961 13.24299343 38.33090153 10 36 C8.64012958 33.22857763 7.80600222 30.94182243 7 28 C6.70947754 26.99227539 6.41895508 25.98455078 6.11962891 24.94628906 C5.15105943 21.51395542 4.22678204 18.07216777 3.3125 14.625 C2.99216797 13.43777344 2.67183594 12.25054687 2.34179688 11.02734375 C0 2.26932303 0 2.26932303 0 0 Z " fill="#F63F5E" transform="translate(788,315)"/>
<path d="M0 0 C0.22042969 1.32451172 0.22042969 1.32451172 0.4453125 2.67578125 C2.76741419 15.10035984 7.51677388 26.41850808 17.77734375 34.37890625 C19.15028406 35.30604476 20.57027101 36.16308547 22 37 C21 39 21 39 18.04418945 40.0690918 C16.73652483 40.45485874 15.42596206 40.83088195 14.11328125 41.19921875 C13.07133858 41.49817802 13.07133858 41.49817802 12.00834656 41.80317688 C10.5341492 42.22321805 9.05874715 42.63905016 7.58227539 43.05102539 C5.334805 43.68124539 3.09432386 44.3328722 0.85351562 44.98632812 C-0.58035432 45.39195243 -2.01458889 45.7962904 -3.44921875 46.19921875 C-4.44800301 46.49284554 -4.44800301 46.49284554 -5.46696472 46.79240417 C-9.65125976 47.93412884 -12.8025725 48.12716567 -17 47 C-22.83103057 42.35782033 -26.51078527 36.03469057 -27.40380859 28.66967773 C-26.88833883 23.98526056 -24.88284042 21.94771413 -21.6015625 18.84765625 C-21.05140472 18.30265976 -20.50124695 17.75766327 -19.93441772 17.19615173 C-18.77393713 16.05275728 -17.60515199 14.91773755 -16.42871094 13.79077148 C-14.62200107 12.0596265 -12.84074177 10.30525365 -11.0625 8.54492188 C-9.93107676 7.43608067 -8.7983096 6.32860873 -7.6640625 5.22265625 C-6.85927963 4.4353286 -6.85927963 4.4353286 -6.03823853 3.63209534 C-2.23558437 0 -2.23558437 0 0 0 Z " fill="#F64160" transform="translate(881,343)"/>
<path d="M0 0 C6.17771872 5.41884348 10.02272182 11.22761515 11.39990234 19.36206055 C10.80517755 23.2851383 8.34667675 25.31110564 5.6015625 27.95703125 C5.05140472 28.50485764 4.50124695 29.05268402 3.93441772 29.61711121 C2.77168989 30.77011104 1.60295527 31.91708063 0.42871094 33.05834961 C-1.37377761 34.8113112 -3.15679246 36.58236504 -4.9375 38.35742188 C-6.0692225 39.47506314 -7.20199969 40.59163766 -8.3359375 41.70703125 C-8.87245941 42.23819046 -9.40898132 42.76934967 -9.96176147 43.31660461 C-13.76673054 47 -13.76673054 47 -16 47 C-16.20753906 46.05640625 -16.41507813 45.1128125 -16.62890625 44.140625 C-19.69010103 31.06206406 -24.90604246 21.10650517 -35 12 C-36.00341281 11.0034245 -37.00395061 10.00393507 -38 9 C-30.78736165 6.53231803 -23.51814031 4.33955495 -16.1875 2.25 C-15.06923828 1.92128906 -13.95097656 1.59257812 -12.79882812 1.25390625 C-11.72439453 0.94839844 -10.64996094 0.64289063 -9.54296875 0.328125 C-8.57383545 0.0487207 -7.60470215 -0.23068359 -6.60620117 -0.51855469 C-3.92879498 -1.01315375 -2.51382427 -0.98050864 0 0 Z " fill="#F6405F" transform="translate(757,427)"/>
<path d="M0 0 C3.37027629 1.12342543 3.93188808 1.91331211 6.0625 4.625 C14.86315967 14.92011131 26.1169021 19.08307217 39 22 C33.92799402 28.025079 28.67257384 33.85088506 23.25 39.5625 C22.40695312 40.50158203 21.56390625 41.44066406 20.6953125 42.40820312 C14.48717892 48.86788952 14.48717892 48.86788952 10.28466797 49.24121094 C3.95949703 48.11616672 -0.27591919 45.17022306 -5 41 C-5.845625 40.38125 -6.69125 39.7625 -7.5625 39.125 C-9.78763826 35.83566518 -8.70963323 32.71685813 -8 29 C-6.92524462 24.35005264 -5.72199708 19.73816167 -4.5 15.125 C-4.17902344 13.89007813 -3.85804688 12.65515625 -3.52734375 11.3828125 C-1.14388321 2.28776642 -1.14388321 2.28776642 0 0 Z " fill="#F6405F" transform="translate(838,317)"/>
<path d="M0 0 C0.88405518 0.20447754 1.76811035 0.40895508 2.67895508 0.61962891 C8.00470859 1.98005747 13.31239465 3.38413391 18.60546875 4.8671875 C20.30123047 5.32931641 20.30123047 5.32931641 22.03125 5.80078125 C23.10761719 6.10113281 24.18398438 6.40148437 25.29296875 6.7109375 C26.26621094 6.98099609 27.23945312 7.25105469 28.2421875 7.52929688 C30.60546875 8.3671875 30.60546875 8.3671875 32.60546875 10.3671875 C31.64447266 11.16769531 31.64447266 11.16769531 30.6640625 11.984375 C19.5148142 21.58834746 11.93656433 32.39236222 10.60546875 47.3671875 C4.89643499 44.98191203 0.77800176 40.14198621 -3.57788086 35.8840332 C-4.66238782 34.83268066 -5.75752175 33.79217865 -6.86303711 32.76293945 C-15.99503405 24.25670128 -15.99503405 24.25670128 -16.94555664 19.76098633 C-16.73202504 17.40002006 -16.28413082 15.55775046 -15.39453125 13.3671875 C-15.07097656 12.56925781 -14.74742187 11.77132813 -14.4140625 10.94921875 C-13.11792927 9.04906227 -11.79601041 7.19139542 -10.39453125 5.3671875 C-9.74484375 4.42552734 -9.74484375 4.42552734 -9.08203125 3.46484375 C-6.25448643 -0.07762007 -4.47327972 -1.051713 0 0 Z " fill="#F63F5E" transform="translate(870.39453125,426.6328125)"/>
<path d="M0 0 C1.15286417 3.4585925 0.8528535 3.78845352 -0.4375 7 C-3.6888024 17.18841304 -3.55125087 30.25022007 0.44140625 40.1875 C1 42 1 42 0 45 C-4.94069633 43.90858818 -9.86811197 42.77251022 -14.78881836 41.59423828 C-16.46303418 41.20001933 -18.14018225 40.81804045 -19.82006836 40.44873047 C-22.23911947 39.91466355 -24.64410131 39.33700046 -27.05078125 38.75 C-27.80087967 38.59442627 -28.55097809 38.43885254 -29.32380676 38.27856445 C-32.284945 37.51943687 -34.49310242 36.8206047 -36.14379883 34.14833069 C-37.64631907 30.27218173 -38.41235811 26.61538216 -38.375 22.4375 C-38.38273438 21.56996094 -38.39046875 20.70242188 -38.3984375 19.80859375 C-37.40675036 12.81817168 -37.40675036 12.81817168 -35 10 C-31.32217225 8.1533417 -27.48486314 7.2246111 -23.5 6.25 C-22.46101562 5.97285156 -21.42203125 5.69570313 -20.3515625 5.41015625 C-18.27399848 4.85838426 -16.19323173 4.31852458 -14.109375 3.79101562 C-9.38910952 2.59019432 -4.69544138 1.29392749 0 0 Z " fill="#F6405F" transform="translate(903,386)"/>
<path d="M0 0 C7.10347821 0.64987348 13.92752929 2.21770338 20.82885742 3.99902344 C22.15639201 4.3342974 23.48798367 4.65388068 24.82299805 4.95800781 C35.92164851 7.49468701 35.92164851 7.49468701 38.5390625 11.1484375 C39.34986755 13.49247107 39.78253997 15.53381182 40 18 C40.12411255 19.00450195 40.12411255 19.00450195 40.25073242 20.02929688 C40.38043852 22.08624699 40.24192826 23.95469608 40 26 C39.9685791 26.71913574 39.9371582 27.43827148 39.90478516 28.17919922 C39.429986 31.10089392 38.84371243 32.65040685 37 35 C31.54290536 37.5581361 25.8567425 38.7995267 20 40.125 C18.40020286 40.52268237 16.80122864 40.92369091 15.203125 41.328125 C3.57079171 44.1902639 3.57079171 44.1902639 0 43 C0.20496094 42.40832031 0.40992188 41.81664062 0.62109375 41.20703125 C0.89050781 40.41683594 1.15992188 39.62664062 1.4375 38.8125 C1.70433594 38.03519531 1.97117187 37.25789063 2.24609375 36.45703125 C6.04912591 24.06269329 4.55695914 11.88064348 0 0 Z " fill="#F63F5F" transform="translate(717,387)"/>
<path d="M0 0 C0.66 0 1.32 0 2 0 C3.31596841 4.58547646 4.61544505 9.17519652 5.90014648 13.76953125 C6.33904915 15.33036165 6.78235776 16.88996032 7.23022461 18.44824219 C7.87487876 20.69413408 8.50332425 22.94404405 9.12890625 25.1953125 C9.33093155 25.8861795 9.53295685 26.57704651 9.74110413 27.28884888 C10.90068222 31.53593846 11.16955037 34.73938242 10 39 C5.61877349 44.13970764 -0.31875832 46.87882208 -6.640625 48.8828125 C-10.86937201 49.0928496 -13.55713232 46.39856838 -16.5871582 43.67163086 C-17.48265381 42.77839111 -18.37814941 41.88515137 -19.30078125 40.96484375 C-19.7820195 40.48551895 -20.26325775 40.00619415 -20.75907898 39.51234436 C-21.76738128 38.50539536 -22.77319327 37.49594707 -23.77661133 36.48413086 C-25.31827448 34.93168514 -26.87041475 33.39028784 -28.42382812 31.84960938 C-29.40428838 30.86782876 -30.38412871 29.88542858 -31.36328125 28.90234375 C-32.25313721 28.01023193 -33.14299316 27.11812012 -34.05981445 26.19897461 C-36 24 -36 24 -36 22 C-34.96101562 21.70867187 -33.92203125 21.41734375 -32.8515625 21.1171875 C-19.74582213 17.32097689 -10.17927762 12.4547581 -1 2 C-0.67 1.34 -0.34 0.68 0 0 Z " fill="#F64060" transform="translate(782,317)"/>
<path d="M0 0 C5.72128754 2.38281733 9.8296441 7.2657272 14.18334961 11.53808594 C15.26872003 12.59531772 16.36385279 13.64261972 17.46850586 14.6796875 C19.07056624 16.18413985 20.64065088 17.71634514 22.20703125 19.2578125 C23.1503833 20.1667627 24.09373535 21.07571289 25.06567383 22.01220703 C27.0950256 25.14677815 27.26305313 25.69375472 26.87670898 29.18212891 C25.37584546 35.71805312 22.0323838 40.70019728 17.625 45.6875 C10.3406042 49.3296979 -0.54078782 44.05327313 -8 41.9375 C-9.36053044 41.55611709 -10.72120649 41.17525327 -12.08203125 40.79492188 C-15.3897221 39.86926328 -18.69538376 38.93658374 -22 38 C-18.2890625 33.2109375 -18.2890625 33.2109375 -15.6875 31.3125 C-6.29274343 23.2286397 -2.28715657 11.81697564 0 0 Z " fill="#F63E5E" transform="translate(741,344)"/>
<path d="M0 0 C4.64973274 1.23105625 8.51761458 3.60238684 12.3125 6.5 C13.323125 7.2425 14.33375 7.985 15.375 8.75 C17.72772673 12.08935406 17.35927505 13.8175939 16.82202148 17.74951172 C15.80723297 23.22752196 14.30246576 28.5730249 12.8125 33.9375 C12.33103516 35.71157227 12.33103516 35.71157227 11.83984375 37.52148438 C9.46868086 46.18763827 9.46868086 46.18763827 8.3125 48.5 C7.6525 48.5 6.9925 48.5 6.3125 48.5 C4.90234375 46.99609375 4.90234375 46.99609375 3.25 44.9375 C-5.88042753 34.25697918 -16.31093535 29.80038605 -29.6875 26.5 C-28.13371926 22.53739942 -25.38070604 20.17028912 -22.25 17.4375 C-18.93290548 14.51416311 -15.71225441 11.6031426 -12.765625 8.30078125 C-5.03492715 -0.31037222 -5.03492715 -0.31037222 0 0 Z " fill="#F63D5D" transform="translate(775.6875,451.5)"/>
<path d="M0 0 C2.29068511 1.74197301 4.09208027 3.34188565 6.0546875 5.3984375 C6.60109894 5.94859528 7.14751038 6.49875305 7.71047974 7.06558228 C8.85867262 8.2271858 9.99966403 9.39594654 11.13378906 10.57128906 C12.8758489 12.37587937 14.63856841 14.15803387 16.40625 15.9375 C17.51949064 17.06907284 18.63151379 18.20184503 19.7421875 19.3359375 C20.53422073 20.14072037 20.53422073 20.14072037 21.34225464 20.96176147 C25 24.76558085 25 24.76558085 25 27 C23.78376953 27.22042969 23.78376953 27.22042969 22.54296875 27.4453125 C9.87267262 30.01182184 -1.82827818 35.48421076 -9.625 46.2421875 C-10.07875 46.82226562 -10.5325 47.40234375 -11 48 C-11.66 48 -12.32 48 -13 48 C-14.31425095 43.39573956 -15.61383189 38.78768045 -16.90014648 34.17553711 C-17.33952094 32.60800843 -17.78284324 31.04158063 -18.23022461 29.47631836 C-18.87360749 27.2226891 -19.50256229 24.96544699 -20.12890625 22.70703125 C-20.33093155 22.01100296 -20.53295685 21.31497467 -20.74110413 20.59785461 C-21.7974174 16.72854181 -22.28915718 13.84376896 -21 10 C-15.7451956 3.71986791 -8.4013488 -1.07105217 0 0 Z " fill="#F63E5D" transform="translate(851,452)"/>
<path d="M0 0 C0.33 0 0.66 0 1 0 C1 238.26 1 476.52 1 722 C0.67 722 0.34 722 0 722 C0 483.74 0 245.48 0 0 Z " fill="#D4D4D4" transform="translate(1631,360)"/>
<path d="M0 0 C5.76085097 0.59487048 11.09469636 1.69326173 16.65625 3.28515625 C17.83785706 3.6159745 17.83785706 3.6159745 19.04333496 3.95347595 C21.5304373 4.65111588 24.01521374 5.35666058 26.5 6.0625 C28.1977685 6.54024039 29.89568394 7.01745894 31.59375 7.49414062 C35.7308889 8.65673771 39.86596276 9.82642382 44 11 C43.59297852 11.52891846 43.18595703 12.05783691 42.76660156 12.6027832 C42.2300293 13.30749756 41.69345703 14.01221191 41.140625 14.73828125 C40.60985352 15.43219971 40.07908203 16.12611816 39.53222656 16.84106445 C36.23986193 21.48006708 33.99148112 26.68938368 32 32 C25.52756334 26.71120198 19.68353602 20.83581643 13.79077148 14.92114258 C12.04590282 13.17085124 10.29567217 11.42604674 8.54492188 9.68164062 C7.43717867 8.57323772 6.3297451 7.46452524 5.22265625 6.35546875 C4.4353286 5.57117744 4.4353286 5.57117744 3.63209534 4.77104187 C0 1.114991 0 1.114991 0 0 Z " fill="#F74967" transform="translate(820,414)"/>
<path d="M0 0 C0.66 0 1.32 0 2 0 C3.59561504 5.7812084 5.18022569 11.56527646 6.75463867 17.35229492 C7.29197342 19.32122325 7.83232529 21.28933074 8.37573242 23.2565918 C9.155546 26.08172464 9.92452078 28.90961567 10.69140625 31.73828125 C10.93717911 32.61962234 11.18295197 33.50096344 11.43617249 34.40901184 C11.65647629 35.22963608 11.87678009 36.05026031 12.10375977 36.89575195 C12.3013942 37.61745071 12.49902863 38.33914948 12.70265198 39.0827179 C13 41 13 41 12 44 C11.19949219 43.76603516 11.19949219 43.76603516 10.3828125 43.52734375 C2.93102055 41.58059533 -3.59232417 42.10356493 -11 44 C-9.29562175 34.65401376 -6.83468129 25.54342381 -4.375 16.375 C-3.95023766 14.78262759 -3.52575624 13.19018022 -3.1015625 11.59765625 C-2.07094448 7.73089912 -1.03653222 3.86517576 0 0 Z " fill="#F74664" transform="translate(810,420)"/>
<path d="M0 0 C0.66 0.33 1.32 0.66 2 1 C0.47875334 6.80473699 -1.0513714 12.60703119 -2.58984375 18.40722656 C-3.11216207 20.38151187 -3.63203023 22.35644707 -4.14941406 24.33203125 C-4.89268058 27.16840462 -5.64467129 30.00233896 -6.3984375 32.8359375 C-6.6287265 33.72243988 -6.8590155 34.60894226 -7.09628296 35.52230835 C-7.31636017 36.34300812 -7.53643738 37.16370789 -7.76318359 38.00927734 C-7.95415619 38.73319672 -8.14512878 39.45711609 -8.34188843 40.20297241 C-9 42 -9 42 -11 44 C-11.70125 43.2575 -12.4025 42.515 -13.125 41.75 C-18.27406946 36.82480312 -23.36154239 34.28912331 -30 32 C-28.71977125 29.19030533 -27.39285871 27.1460762 -25.20263672 24.97558594 C-24.64220673 24.41530701 -24.08177673 23.85502808 -23.50436401 23.277771 C-22.90222076 22.68595032 -22.30007751 22.09412964 -21.6796875 21.484375 C-21.06102814 20.86854553 -20.44236877 20.25271606 -19.80496216 19.6182251 C-17.83296186 17.65739664 -15.85411263 15.70364699 -13.875 13.75 C-12.53469836 12.41973201 -11.19484917 11.089008 -9.85546875 9.7578125 C-6.57553411 6.4998985 -3.28944058 3.24831467 0 0 Z " fill="#F74966" transform="translate(804,418)"/>
<path d="M0 0 C-10.23 10.23 -20.46 20.46 -31 31 C-33 30 -33 30 -33.82421875 27.77734375 C-34.10910156 26.84019531 -34.39398437 25.90304687 -34.6875 24.9375 C-36.68675987 19.1145606 -39.6404986 15.27378087 -44 11 C-40.42989967 8.61993311 -36.84270967 7.68915803 -32.75390625 6.58203125 C-31.54262306 6.24977791 -31.54262306 6.24977791 -30.30686951 5.91081238 C-28.60046329 5.44490817 -26.89325034 4.98195007 -25.18530273 4.52172852 C-22.57283387 3.81529437 -19.9651812 3.0927391 -17.35742188 2.36914062 C-15.69818602 1.9182784 -14.03868893 1.46837625 -12.37890625 1.01953125 C-11.59963272 0.80190628 -10.82035919 0.58428131 -10.01747131 0.36006165 C-6.07131762 -0.68658854 -4.05161535 -1.01290384 0 0 Z " fill="#F74866" transform="translate(802,415)"/>
<path d="M0 0 C2.89067 1.39837331 5.2079862 2.89463014 7.6875 4.9375 C11.82929185 8.12769373 15.98031934 9.67536205 21 11 C19.7237475 13.79425088 18.40029023 15.85142126 16.234375 18.02441406 C15.40341309 18.86483246 15.40341309 18.86483246 14.55566406 19.722229 C13.95979492 20.31404968 13.36392578 20.90587036 12.75 21.515625 C12.13608398 22.13145447 11.52216797 22.74728394 10.88964844 23.3817749 C9.59425517 24.67852646 8.29634356 25.97276657 6.99609375 27.26464844 C5.00024932 29.24975202 3.01533274 31.24533591 1.03125 33.2421875 C-0.22852555 34.50064211 -1.48892101 35.75847654 -2.75 37.015625 C-3.34586914 37.6155426 -3.94173828 38.21546021 -4.55566406 38.83355713 C-8.77006753 43 -8.77006753 43 -11 43 C-7.76021365 28.55176024 -3.90649651 14.28045163 0 0 Z " fill="#F74866" transform="translate(827,356)"/>
<path d="M0 0 C1.11375 0.2475 1.11375 0.2475 2.25 0.5 C9.5532017 1.47376023 16.75862925 1.35775702 24 0 C21.67058758 10.38831127 19.09097652 20.70601765 16.375 31 C16.07392334 32.1638623 15.77284668 33.32772461 15.46264648 34.52685547 C15.17333252 35.61111816 14.88401855 36.69538086 14.5859375 37.8125 C14.3286084 38.78832031 14.0712793 39.76414062 13.80615234 40.76953125 C13 43 13 43 11 44 C9.42863781 38.21718959 7.86218496 32.43308052 6.30029297 26.64770508 C5.76811737 24.67923982 5.23459537 22.71113806 4.69970703 20.7434082 C3.93168648 17.91712109 3.16849667 15.08956775 2.40625 12.26171875 C2.16563843 11.38037766 1.92502686 10.49903656 1.67712402 9.59098816 C1.45689575 8.77036392 1.23666748 7.94973969 1.00976562 7.10424805 C0.81435181 6.38254929 0.61893799 5.66085052 0.41760254 4.9172821 C0 3 0 3 0 0 Z " fill="#F74563" transform="translate(799,354)"/>
<path d="M0 0 C-0.16757812 0.73863281 -0.33515625 1.47726562 -0.5078125 2.23828125 C-2.00693734 9.70544108 -1.88639521 15.62854797 0 23 C-10.38831127 20.67058758 -20.70601765 18.09097652 -31 15.375 C-32.1638623 15.07392334 -33.32772461 14.77284668 -34.52685547 14.46264648 C-35.61111816 14.17333252 -36.69538086 13.88401855 -37.8125 13.5859375 C-38.78832031 13.3286084 -39.76414062 13.0712793 -40.76953125 12.80615234 C-43 12 -43 12 -44 10 C-38.2187916 8.40438496 -32.43472354 6.81977431 -26.64770508 5.24536133 C-24.67877675 4.70802658 -22.71066926 4.16767471 -20.7434082 3.62426758 C-17.91827536 2.844454 -15.09038433 2.07547922 -12.26171875 1.30859375 C-11.38037766 1.06282089 -10.49903656 0.81704803 -9.59098816 0.56382751 C-8.77036392 0.34352371 -7.94973969 0.12321991 -7.10424805 -0.10375977 C-6.02169991 -0.40021141 -6.02169991 -0.40021141 -4.9172821 -0.70265198 C-3 -1 -3 -1 0 0 Z " fill="#F74664" transform="translate(866,398)"/>
<path d="M0 0 C9.34598624 1.70437825 18.45657619 4.16531871 27.625 6.625 C29.21737241 7.04976234 30.80981978 7.47424376 32.40234375 7.8984375 C36.26910088 8.92905552 40.13482424 9.96346778 44 11 C43 13 43 13 41.28526306 13.65811157 C40.54135818 13.84908417 39.79745331 14.04005676 39.03100586 14.23681641 C38.19020981 14.45689362 37.34941376 14.67697083 36.48313904 14.90371704 C35.56960159 15.13400604 34.65606415 15.36429504 33.71484375 15.6015625 C32.78402481 15.8428891 31.85320587 16.0842157 30.8941803 16.33285522 C27.910527 17.10453202 24.9241129 17.86486712 21.9375 18.625 C19.91842839 19.14509085 17.89954543 19.66591464 15.88085938 20.1875 C10.92272471 21.46685932 5.96208472 22.73605192 1 24 C-0.28554887 21.42890225 0.31189981 20.74768774 1 18 C1.09310777 15.85578272 1.12996239 13.70873209 1.125 11.5625 C1.12757813 10.45003906 1.13015625 9.33757812 1.1328125 8.19140625 C1.01364508 5.32788329 0.59674301 2.79201062 0 0 Z " fill="#F74564" transform="translate(756,397)"/>
<path d="M0 0 C0.20753906 0.70125 0.41507813 1.4025 0.62890625 2.125 C2.89763045 9.11153144 5.75830525 13.86137228 11 19 C10.67 19.66 10.34 20.32 10 21 C7.24576716 21.90363466 4.53186554 22.68945473 1.73046875 23.41796875 C0.89792068 23.63947098 0.06537262 23.86097321 -0.79240417 24.08918762 C-2.55755607 24.55627121 -4.32381667 25.01918153 -6.09106445 25.47827148 C-8.79417378 26.18272404 -11.49179553 26.90584695 -14.18945312 27.63085938 C-15.90334574 28.0818711 -17.61752972 28.53177735 -19.33203125 28.98046875 C-20.13945267 29.19809372 -20.94687408 29.41571869 -21.77876282 29.63993835 C-22.91465096 29.93067986 -22.91465096 29.93067986 -24.07348633 30.22729492 C-24.73665359 30.40113205 -25.39982086 30.57496918 -26.08308411 30.7540741 C-28.29991386 31.03847669 -29.88139741 30.66204373 -32 30 C-27.77051017 25.72119773 -23.53458815 21.44891021 -19.29248047 17.18261719 C-17.84927028 15.72932827 -16.40785736 14.2742523 -14.96826172 12.81738281 C-12.90277659 10.72773165 -10.83098514 8.64452092 -8.7578125 6.5625 C-8.11192169 5.90628662 -7.46603088 5.25007324 -6.80056763 4.57397461 C-6.20009613 3.97335205 -5.59962463 3.37272949 -4.98095703 2.75390625 C-4.45245148 2.22095947 -3.92394592 1.6880127 -3.37942505 1.13891602 C-2 0 -2 0 0 0 Z " fill="#F64261" transform="translate(853,372)"/>
<path d="M0 0 C1.74116563 2.61174844 2.44432769 4.0913009 3.23681641 7.01245117 C3.45689362 7.81305466 3.67697083 8.61365814 3.90371704 9.43852234 C4.24915054 10.72772331 4.24915054 10.72772331 4.6015625 12.04296875 C4.8428891 12.9265657 5.0842157 13.81016266 5.33285522 14.72053528 C6.10204298 17.54148781 6.86360542 20.36443518 7.625 23.1875 C8.14533226 25.10104778 8.66615962 27.01446101 9.1875 28.92773438 C10.46408234 33.61694793 11.73383002 38.30796472 13 43 C10.20574912 41.7237475 8.14857874 40.40029023 5.97558594 38.234375 C5.41530701 37.68040039 4.85502808 37.12642578 4.277771 36.55566406 C3.68595032 35.95979492 3.09412964 35.36392578 2.484375 34.75 C1.5606308 33.82912598 1.5606308 33.82912598 0.6182251 32.88964844 C-0.67852646 31.59425517 -1.97276657 30.29634356 -3.26464844 28.99609375 C-5.24975202 27.00024932 -7.24533591 25.01533274 -9.2421875 23.03125 C-10.50064211 21.77147445 -11.75847654 20.51107899 -13.015625 19.25 C-13.6155426 18.65413086 -14.21546021 18.05826172 -14.83355713 17.44433594 C-19 13.22993247 -19 13.22993247 -19 11 C-17.82244141 10.56300781 -17.82244141 10.56300781 -16.62109375 10.1171875 C-9.99633198 7.53231113 -5.0916581 4.9759386 0 0 Z " fill="#F74564" transform="translate(793,356)"/>
<path d="M0 0 C2.80969467 1.28022875 4.8539238 2.60714129 7.02441406 4.79736328 C7.86483246 5.63800827 7.86483246 5.63800827 8.722229 6.49563599 C9.31404968 7.09777924 9.90587036 7.69992249 10.515625 8.3203125 C11.13145447 8.93897186 11.74728394 9.55763123 12.3817749 10.19503784 C14.34260336 12.16703814 16.29635301 14.14588737 18.25 16.125 C19.58026799 17.46530164 20.910992 18.80515083 22.2421875 20.14453125 C25.5001015 23.42446589 28.75168533 26.71055942 32 30 C27.5332972 31.39047069 23.96979507 30.19982453 19.5859375 28.98046875 C18.77508698 28.7618367 17.96423645 28.54320465 17.1288147 28.31794739 C15.417939 27.85424238 13.70835243 27.38575826 12 26.9128418 C9.38084592 26.18911535 6.75737386 25.48312969 4.1328125 24.77929688 C2.4710685 24.32656808 0.80960005 23.87282639 -0.8515625 23.41796875 C-2.03125107 23.10064034 -2.03125107 23.10064034 -3.23477173 22.77690125 C-8.76911305 21.23088695 -8.76911305 21.23088695 -11 19 C-10.54109375 18.55011719 -10.0821875 18.10023438 -9.609375 17.63671875 C-4.49493081 12.27514805 -2.09157186 7.06717447 0 0 Z " fill="#F64261" transform="translate(769,372)"/>
<path d="M0 0 C7.11905227 5.80683219 13.47374812 12.36285444 19.9375 18.875 C21.10979204 20.05231638 22.28231614 21.22940174 23.45507812 22.40625 C26.30606982 25.26817489 29.15389615 28.13321457 32 31 C29.77986049 33.22013951 28.3047195 33.71598135 25.375 34.75 C20.19675282 36.73700183 16.25869238 39.50830134 12 43 C9.33702272 35.33855403 7.11557226 27.56611362 4.9284668 19.7590332 C4.3067828 17.5421125 3.67994477 15.32669085 3.05273438 13.11132812 C2.655942 11.70060743 2.25944657 10.28980317 1.86328125 8.87890625 C1.6758284 8.21750137 1.48837555 7.5560965 1.29524231 6.87464905 C0 2.229625 0 2.229625 0 0 Z " fill="#F64260" transform="translate(816,418)"/>
<path d="M0 0 C0 0.33 0 0.66 0 1 C-0.8755957 1.22220215 -1.75119141 1.4444043 -2.65332031 1.67333984 C-6.48149383 3.19086938 -8.77743801 5.2970947 -11.546875 8.2265625 C-12.044151 8.73424164 -12.541427 9.24192078 -13.05377197 9.76498413 C-14.62907762 11.37570209 -16.19024459 12.99923085 -17.75 14.625 C-19.32579013 16.25602203 -20.90443014 17.88401739 -22.48907471 19.50643921 C-23.91828859 20.97132656 -25.33780941 22.44565222 -26.75683594 23.92041016 C-29 26 -29 26 -31 26 C-29.44601677 22.03688302 -26.69252633 19.67147616 -23.5625 16.9375 C-20.25063019 14.00227618 -17.00397576 11.06362989 -13.97265625 7.8359375 C-13.49304443 7.3294165 -13.01343262 6.82289551 -12.51928711 6.30102539 C-11.19201076 4.88403994 -9.88070399 3.4521458 -8.5703125 2.01953125 C-5.46844818 -0.41764786 -3.84944865 -0.43208097 0 0 Z " fill="#F8536E" transform="translate(777,452)"/>
<path d="" fill="#D7D6D6" transform="translate(0,0)"/>
<path d="" fill="#D7D6D6" transform="translate(0,0)"/>
<path d="M0 0 C2 1 2 1 2 1 Z " fill="#D7D6D6" transform="translate(1307,18)"/>
<path d="" fill="#FFD2D9" transform="translate(0,0)"/>
<path d="" fill="#D7D7D6" transform="translate(0,0)"/>
<path d="" fill="#D7D7D6" transform="translate(0,0)"/>
<path d="" fill="#D7D6D7" transform="translate(0,0)"/>
</svg>
