<svg width="16" height="16" viewBox="0 0 16 16" fill="none" xmlns="http://www.w3.org/2000/svg">
  <path d="M4 1.5H8.9L12 4.6V13.25C12 14.2165 11.2165 15 10.25 15H4.75C3.7835 15 3 14.2165 3 13.25V3.25C3 2.2835 3.7835 1.5 4.75 1.5H4Z" fill="#FFF7F9"/>
  <path d="M8.75 1.5V3.85C8.75 4.45625 9.24375 4.95 9.85 4.95H12" fill="#FFD9E0"/>
  <path d="M5.15 11.9V5.6H6.55L8 7.95L9.45 5.6H10.85V11.9H9.55V7.95L8 10.35L6.45 7.95V11.9H5.15Z" fill="#F74563"/>
  <path d="M8.9 1.5L12 4.6V13.25C12 14.2165 11.2165 15 10.25 15H4.75C3.7835 15 3 14.2165 3 13.25V3.25C3 2.2835 3.7835 1.5 4.75 1.5H8.9Z" stroke="#D7A0AA" stroke-width="1"/>
</svg>
